<svg id="Layer_1" data-name="Layer 1" xmlns="http://www.w3.org/2000/svg" viewBox="0 0 76.67 76.98"><defs><style>.cls-1{fill:#ffc757;}</style></defs><path class="cls-1" d="M63.84,38.49c0-.55,0-1.08-.06-1.62l12.89-2.4-1.08-5.9-12.9,2.36A25.3,25.3,0,0,0,58,22.23l9-9.52L62.64,8.57l-9,9.5a25.41,25.41,0,0,0-8.93-4.29l1.7-13L40.42,0,38.67,13h-.33a25.42,25.42,0,0,0-9.41,1.8L22.67,3.27,17.4,6.13l6.23,11.55a25.6,25.6,0,0,0-6.82,7.17L5,19.2,2.37,24.62l11.82,5.67a25.59,25.59,0,0,0-1.36,8.2c0,.54,0,1.08.06,1.62L0,42.5l1.09,5.91L14,46.05a25.3,25.3,0,0,0,4.73,8.7l-9,9.52h0L14,68.41l9-9.5A25.49,25.49,0,0,0,32,63.2l-1.7,13,5.95.79L38,64h.34a25.32,25.32,0,0,0,9.4-1.8L54,73.71l5.28-2.86L53,59.3a25.63,25.63,0,0,0,6.83-7.17l11.84,5.65,2.59-5.42L62.48,46.69A25.32,25.32,0,0,0,63.84,38.49ZM38.34,58a19.5,19.5,0,1,1,19.5-19.5A19.53,19.53,0,0,1,38.34,58Z"/></svg>