<svg id="Layer_1" data-name="Layer 1" xmlns="http://www.w3.org/2000/svg" viewBox="0 0 253.27 42.93"><defs><style>.cls-1{fill:#f6c76a;}.cls-2{fill:#ff6767;}</style></defs><path id="Path_2177" data-name="Path 2177" class="cls-1" d="M35.61,21.48q0-.45,0-.9l7.19-1.34L42.16,16,35,17.26a14.28,14.28,0,0,0-2.64-4.86l5-5.31-2.42-2.3-5,5.29a14,14,0,0,0-5-2.39L25.86.44,22.55,0l-1,7.25h-.19a14.07,14.07,0,0,0-5.24,1L12.65,1.83l-3,1.59,3.48,6.44a14.33,14.33,0,0,0-3.8,4L2.77,10.72l-1.45,3,6.6,3.17a14.22,14.22,0,0,0-.76,4.57q0,.45,0,.9L0,23.71.61,27,7.8,25.68a14.26,14.26,0,0,0,2.63,4.86l-5,5.31h0l2.43,2.3,5.05-5.29a14.35,14.35,0,0,0,5,2.39l-.95,7.24,3.31.44,1-7.25h.18a14.28,14.28,0,0,0,5.25-1l3.49,6.43,2.95-1.6-3.48-6.44a14.2,14.2,0,0,0,3.8-4L40,32.22l1.44-3L34.85,26A14.16,14.16,0,0,0,35.61,21.48ZM21.38,32.35A10.88,10.88,0,1,1,32.27,21.48,10.88,10.88,0,0,1,21.38,32.35Z"/><g id="Group_58" data-name="Group 58"><g id="Group_2" data-name="Group 2"><path id="Path_2027" data-name="Path 2027" class="cls-2" d="M58.52,8h4.7V18.73H75.56V8h4.7V34.94h-4.7V23.07H63.22V34.94h-4.7Z"/><path id="Path_2028" data-name="Path 2028" class="cls-2" d="M84.74,21.58a15.76,15.76,0,0,1,1-5.88,13.2,13.2,0,0,1,2.89-4.51,12.75,12.75,0,0,1,4.4-2.87,15.14,15.14,0,0,1,5.61-1,15.45,15.45,0,0,1,5.67.93,12.29,12.29,0,0,1,4.43,2.84,13.07,13.07,0,0,1,2.91,4.49,15.66,15.66,0,0,1,1,5.86,15.26,15.26,0,0,1-1,5.75,13,13,0,0,1-7.34,7.36,15.33,15.33,0,0,1-5.67,1.09,15.14,15.14,0,0,1-5.61-1,12.72,12.72,0,0,1-4.4-2.86,12.92,12.92,0,0,1-2.89-4.43A15.06,15.06,0,0,1,84.74,21.58Zm4.92-.3a11.61,11.61,0,0,0,.65,4,9.43,9.43,0,0,0,1.85,3.16A8.56,8.56,0,0,0,95,30.53a9.46,9.46,0,0,0,7.43,0,8.54,8.54,0,0,0,2.88-2.09,9.57,9.57,0,0,0,1.84-3.16,11.61,11.61,0,0,0,.65-4,10.76,10.76,0,0,0-.65-3.77,9.52,9.52,0,0,0-1.84-3.07,8.3,8.3,0,0,0-2.88-2,9.7,9.7,0,0,0-7.43,0,8.45,8.45,0,0,0-2.85,2,9.37,9.37,0,0,0-1.85,3.07,10.72,10.72,0,0,0-.65,3.77Z"/><path id="Path_2029" data-name="Path 2029" class="cls-2" d="M117.21,8h4.7V30.6h11.23v4.34H117.21Z"/><path id="Path_2030" data-name="Path 2030" class="cls-2" d="M136.45,8h4.7V34.94h-4.7Z"/><path id="Path_2031" data-name="Path 2031" class="cls-2" d="M146.93,8h10.4a15.64,15.64,0,0,1,5,.82,11.89,11.89,0,0,1,7.27,6.7,14.47,14.47,0,0,1,1.12,6,13,13,0,0,1-1.28,6,12.73,12.73,0,0,1-3.32,4.18,14,14,0,0,1-4.51,2.48,15.49,15.49,0,0,1-4.87.81h-9.84Zm8.2,22.61a16.23,16.23,0,0,0,4.16-.51,9.88,9.88,0,0,0,3.41-1.6A7.56,7.56,0,0,0,165,25.67a9.53,9.53,0,0,0,.84-4.21,10.67,10.67,0,0,0-.75-4.18A7.25,7.25,0,0,0,163,14.44a8.82,8.82,0,0,0-3.14-1.6,14.76,14.76,0,0,0-4-.51h-4.29V30.6Z"/><path id="Path_2032" data-name="Path 2032" class="cls-2" d="M183.77,8h4.06L199.2,34.94h-5.36l-2.47-6.17H179.93l-2.39,6.17h-5.26Zm6,16.67-4.06-11-4.14,11Z"/><path id="Path_2033" data-name="Path 2033" class="cls-2" d="M200.51,30.6,214.6,12.33H200.73V8h19.73v4.34L206.25,30.6h14.43v4.34H200.51Z"/><path id="Path_2034" data-name="Path 2034" class="cls-2" d="M224.93,8h17.49v4.34H229.63V19h12.12v4.34H229.63v7.32h13.46v4.33H224.93Z"/><path id="Path_2035" data-name="Path 2035" class="cls-2" d="M247.3,32.28a3,3,0,0,1,3-3,2.93,2.93,0,0,1,2.08.83,2.71,2.71,0,0,1,.9,2.06,3,3,0,0,1-3,3,3,3,0,0,1-1.14-.23,3.09,3.09,0,0,1-1-.61,2.57,2.57,0,0,1-.65-.91A2.66,2.66,0,0,1,247.3,32.28Z"/></g></g></svg>