<svg id="Layer_1" data-name="Layer 1" xmlns="http://www.w3.org/2000/svg" viewBox="0 0 367.57 223.83"><defs><style>.cls-1{fill:#27252b;}.cls-2{fill:#39373d;}.cls-3{fill:#454349;}.cls-4{fill:#100f15;}.cls-5{fill:#3e3e42;}.cls-6{fill:#4f4e54;}.cls-7{fill:#2b292e;}.cls-8{fill:#b0aeb1;}.cls-9{fill:#0e0d13;}.cls-10{fill:#919095;}.cls-11{fill:#dce1f0;}.cls-12{fill:#100f14;}.cls-13{fill:#1b1a20;}.cls-14{fill:#4d4c53;}.cls-15{fill:#27262c;}.cls-16{fill:#0e0b11;}.cls-17{fill:#0c241e;}.cls-18{fill:#323035;}.cls-19{fill:#1a191f;}.cls-20{fill:#e23423;}.cls-21{fill:#020106;}.cls-22{fill:#706e71;}.cls-23{fill:#1a4c3e;}.cls-24{fill:#2c2e33;}</style></defs><path class="cls-1" d="M.12,150.54v66a23.78,23.78,0,0,0,19,7c12-1,179,1,188,0s134-2,145-4,15-3,15-6,1-36,0-38-1-2-6-3-9-2-9-2,1-35,0-37-28-59-29-61,13-5,15-6,5-4,5-13-1-25-1-25-3-5-8-6-48-10-54-11a33.85,33.85,0,0,0-11,0s-3-7-6-7S247.62,1,236.62,0s-176,16-176,16-8,1-8,12-2,112-2,112,1,6-4,6-40,1-43,1S-.38,150,.12,150.54Z"/><path class="cls-2" d="M0,161.73l16.9-.43c15.43-.4,36.26-1,39.06-1.07,4.5-.19,9.94-3.19,10.32-9.38S69.47,145,69.47,145L3.62,147a3.29,3.29,0,0,0-3.5,3.5C.12,154.23,0,161.73,0,161.73Z"/><path class="cls-3" d="M17.48,176l-.58-14.7s34.67,0,39.06-1.07,9-2.25,10.32-9.38S69.47,145,69.47,145h4.32s-4.69-.18-4.32,6.58a72,72,0,0,0,.75,8.87c.38,2.77,2.07,2.77,5.26,2.58s43-.19,44.67-.19,3.19-1.69,3.19-4.69-.75-9.2,0-11.26,6.76-3.2,6.76-3.2a5,5,0,0,0-1.31,3.2c0,1.87.56,11.63,10.51,12s44.48-.75,44.48-.75v15.58Z"/><polygon class="cls-4" points="12.78 176 187.16 173.94 187.16 191.02 19.17 193 12.78 193.08 12.78 176"/><rect class="cls-5" x="12.78" y="176" width="7.13" height="17.08"/><polygon class="cls-6" points="183.78 173.75 183.78 182.01 19.92 184.54 19.92 176 183.78 173.75"/><path class="cls-7" d="M207.39,158.17c11.12.09,56.87,1.87,58.7,1.69s7.61-6.39,7.61-17.37-2.26-121.16-2.26-124.73S267.75,6.9,263.12,4.54,238.41-.12,234.84,0,60.62,16,60.62,16s-7.87,1.06-8,12-2,112-2,112-.23,5.26-2.11,5.63L73.79,145l56.31-1.31s-4.51,13.33,9.2,15.21C139.3,158.92,196.27,158.07,207.39,158.17Z"/><path class="cls-8" d="M58.3,28.18s-2,60-1.12,65.89,3.09,5.91,6.75,5.63S87,98.57,87,98.57s3.94-1.41,4.22-9.29,0-61.1,0-61.1S90.4,21.71,85.61,22,63.93,23.11,61.4,23.68,58.39,25.37,58.3,28.18Z"/><path class="cls-2" d="M130.1,143.71s61.94-1.5,76.58-1.78,39.7,1.13,42,0,2.81-11.82,2.25-24.49-1.41-101.08-2.25-105S242.93-.29,236.62,0l26.5,4.5s8.11,2.79,8.39,17.44,2.19,110.94,2.19,120.51-2.57,17.44-7.61,17.37-71.71-2-82.31-1.69-38.38,1.41-44.48.75S127,153.1,130.1,143.71Z"/><path class="cls-9" d="M201.49,63.54c12.52-.34,26.82-1.37,31.77-1.37s8.8-4.13,8.8-10.73.55-28.32,0-33.82S240.14,7.45,231.89,7.45s-26.71.28-30.4,2.48-4.8,4.3-5.07,12.05,0,29.74,0,32.76S198,63.64,201.49,63.54Z"/><path class="cls-10" d="M239.05,9.61s-24.76,1.14-30.54,5.54S203.29,46.5,206,52.54s16,4.68,24.47,4.4,11-1.45,11-1.45-2.16,6.48-8.25,6.68-26.71,1.1-31.77,1.37-5.25-6.59-5.2-12.1-.12-30.79,0-34.64,3.24-7.59,10.88-8.26S227,6.69,231.89,7.45A21.43,21.43,0,0,1,239.05,9.61Z"/><path class="cls-11" d="M223.09,57.23a9.5,9.5,0,0,1-4.21-4.41c-1.29-3-1.44-28.32.42-32.72s6.81-4.68,12.86-4.68a21.5,21.5,0,0,1,9.9,2.2l-.55,37.87S227.5,57.22,223.09,57.23Z"/><path class="cls-12" d="M223.91,77.57s-7.65.3-11.59,0-4.51-4.15-4-6.4.94-4.42,6.48-4.79a67.27,67.27,0,0,1,10.13,0c1.78.09,3.66,1.59,3.47,4.69S227.53,76.27,223.91,77.57Z"/><circle class="cls-7" cx="217.07" cy="71.79" r="5.13"/><path class="cls-13" d="M189.15,64.37c0,28.54-23.29,51.66-50.88,49.69-25.47-1.82-41.55-21.15-41.55-49.69S117.41,12.7,142.94,12.7C176.28,12.7,189.15,35.83,189.15,64.37Z"/><path class="cls-7" d="M176.56,61.62c0,25.69-17.49,47.82-39,48.92-26.89,1.38-39-21.9-39-48.92s21.69-48.92,39-48.92C159.1,12.7,176.56,34.6,176.56,61.62Z"/><path class="cls-14" d="M171.77,61.7c0,24.11-19.15,43.65-35,43.65-19.31,0-36.79-19.61-35-43.65,1.69-22.17,16.5-41.24,35-43.66C156,15.54,171.77,37.59,171.77,61.7Z"/><path class="cls-15" d="M166.14,63c0,15.16-11.77,27.46-21.5,27.46-11.87,0-22.62-12.34-21.5-27.46,1-13.94,10.15-25.93,21.5-27.45C156.41,33.92,166.14,47.79,166.14,63Z"/><path class="cls-16" d="M166.14,64.41c0,12.18-10.08,22-18.4,22-10.16,0-19.36-9.9-18.4-22,.89-11.2,8.69-20.83,18.4-22C157.82,41.09,166.14,52.23,166.14,64.41Z"/><path class="cls-17" d="M166.14,63.39c0,9.14-5.89,16.56-10.75,16.56-5.94,0-11.31-7.44-10.75-16.56.52-8.4,5.07-15.64,10.75-16.55C161.28,45.89,166.14,54.25,166.14,63.39Z"/><path class="cls-18" d="M289.55,13.38s7.8,2.69,14.18,16.21,19.39,43,19.39,43,17-5.1,17-6.35,3.16-4.27,3-12.65-.65-19.14-.82-22.07-.75-7.4-8.18-8.93Z"/><path class="cls-18" d="M249.29,159.44s9.76,3.42,15.77,28.2,6.76,34.41,6.76,34.41,70.33-1.68,74.25-2a67.2,67.2,0,0,0,9.2-1.13c3.14-.62,9.09-.62,10.47-3s1.4-3.76,1.48-7.28.45-29.38.18-31.25.21-3.54-4.21-4.44-11.07-2.43-11.07-2.43L273,150.48s-1.56,8.63-6.91,9.38S249.29,159.44,249.29,159.44Z"/><ellipse class="cls-19" cx="66.72" cy="126.12" rx="12.36" ry="16.1"/><ellipse class="cls-20" cx="65.91" cy="126.3" rx="10.32" ry="13.63"/><path class="cls-19" d="M191.29,95.29s-8.63,0-10.32.93-6,2.68-4.41,9.13,9.14,6.3,12.59,6.57c0,0,6.83-2.44,6.46-8.32A10.68,10.68,0,0,0,191.29,95.29Z"/><ellipse class="cls-21" cx="181.89" cy="103.38" rx="5.64" ry="7.48"/><path class="cls-22" d="M74.17,22.63s-11.61.2-11.05,8.08,0,59.7,0,59.7-1.79,9.33,11.07,8.74,17,.84,17.07-9.87,0-61.1,0-61.1-.59-6.47-5.63-6.19S74.17,22.63,74.17,22.63Z"/><path class="cls-8" d="M75.2,22.63s-6,.2-5.68,8.08,0,59.7,0,59.7-.92,9.33,5.69,8.74,8.73.84,8.79-9.87,0-61.1,0-61.1-.31-6.47-2.9-6.19S75.2,22.63,75.2,22.63Z"/><ellipse class="cls-23" cx="149.75" cy="67.51" rx="2.58" ry="4.28"/><ellipse class="cls-23" cx="148.38" cy="59.53" rx="1.38" ry="2.3"/><rect class="cls-10" x="222.19" y="21.98" width="6.18" height="16.05" rx="3.09"/><rect class="cls-10" x="222.19" y="39.72" width="6.18" height="10.46" rx="3.09"/><path class="cls-19" d="M82.34,159.5s23.09.64,26.09,0,6.94-4.2,6.19-7.58-4.69-4.69-8.63-4.5-15.87-.41-19.67,0-8.11,4-7.55,7.15S79.71,158.45,82.34,159.5Z"/><path class="cls-24" d="M101.48,147.43s10.33-.88,8.64,5.59-9.11,7-18.45,6.76-12.52.4-12.9-5.23,3.84-6,7.55-7.15S101.48,147.43,101.48,147.43Z"/></svg>